<?xml version="1.0" encoding="UTF-8"?><!DOCTYPE svg PUBLIC "-//W3C//DTD SVG 1.1//EN" "http://www.w3.org/Graphics/SVG/1.1/DTD/svg11.dtd"><svg xmlns="http://www.w3.org/2000/svg" xmlns:xlink="http://www.w3.org/1999/xlink"><symbol id="icon-cart" viewBox="0 0 23 22"><g fill="none">
<path d="M22.2534 5.34824C21.9921 6.14119 21.7308 6.93414 21.474 7.72709C20.7892 9.84913 20.1134 11.9757 19.433 14.0977C19.2708 14.6023 19.0861 14.742 18.559 14.742C15.2655 14.742 11.9721 14.742 8.67866 14.7375C8.49393 14.7375 8.41284 14.7916 8.35878 14.9673C8.19658 15.4493 8.01637 15.9269 7.83165 16.4495C7.93978 16.4495 8.02538 16.4495 8.11098 16.4495C11.5756 16.4495 15.0448 16.4495 18.5094 16.4495C18.5995 16.4495 18.6896 16.4495 18.7798 16.4585C19.0906 16.4991 19.3069 16.7424 19.2979 17.0307C19.2889 17.3236 19.0636 17.5624 18.7572 17.5849C18.5545 17.5984 18.3472 17.5894 18.0994 17.5894C18.5365 18.1436 18.7077 18.7293 18.568 19.3826C18.4599 19.8962 18.185 20.3152 17.7525 20.617C16.9731 21.1622 15.9684 21.1442 15.1754 20.4413C14.405 19.761 14.3419 18.7608 15.0132 17.6074C13.5535 17.6074 12.0983 17.6074 10.616 17.6074C11.0755 18.2247 11.2467 18.8825 10.9944 19.6168C10.8458 20.0494 10.5754 20.3963 10.2015 20.6486C9.39952 21.1892 8.35427 21.0946 7.64692 20.4098C7.0432 19.8286 6.67826 18.7158 7.52978 17.5894C7.37209 17.5894 7.24144 17.5894 7.10628 17.5894C6.59717 17.5804 6.34936 17.2335 6.51606 16.7514C6.72782 16.1522 6.94408 15.553 7.16034 14.9583C7.18287 14.8952 7.20088 14.8321 7.22792 14.742C7.11979 14.742 7.02968 14.742 6.94408 14.742C6.56112 14.733 6.29981 14.5167 6.23223 14.1473C5.99344 12.8632 5.75916 11.5792 5.52488 10.2952C5.11489 8.06049 4.70039 5.82581 4.29491 3.58663C4.27238 3.46048 4.21831 3.40191 4.10117 3.35686C3.22712 3.01895 2.35308 2.67204 1.47903 2.32512C1.1141 2.18095 0.938385 1.85656 1.01948 1.52316C1.12311 1.10416 1.5331 0.892405 1.96111 1.0546C2.51077 1.26185 3.05592 1.48261 3.60107 1.69887C4.07864 1.88359 4.55172 2.07732 5.02929 2.25754C5.33115 2.37017 5.49785 2.58193 5.55642 2.8928C5.96191 5.10045 6.36739 7.31259 6.77287 9.52024C6.99814 10.7502 7.22342 11.9802 7.44418 13.2102C7.46671 13.3408 7.52077 13.3859 7.66044 13.3859C11.1251 13.3814 14.5942 13.3814 18.0589 13.3859C18.1715 13.3859 18.2436 13.3678 18.2842 13.2372C19.0636 10.7953 19.8475 8.35785 20.627 5.91592C20.6315 5.90241 20.627 5.88889 20.627 5.84834C20.4738 5.83933 20.3206 5.82581 20.1674 5.8168C17.748 5.71318 15.3286 5.61406 12.9092 5.51044C11.4089 5.44736 9.90863 5.37978 8.40834 5.3122C7.98032 5.29418 7.69648 5.00133 7.71 4.60035C7.72351 4.21288 8.02988 3.93805 8.44888 3.95157C9.12469 3.9741 9.80501 4.01014 10.4808 4.03717C11.927 4.10025 13.3688 4.16783 14.815 4.2264C17.0677 4.32552 19.3204 4.42013 21.5731 4.51925C21.9335 4.53276 22.1318 4.74452 22.2534 5.0599C22.2534 5.15451 22.2534 5.24912 22.2534 5.34824ZM16.5811 18.0444C16.081 18.0399 15.6665 18.4454 15.662 18.941C15.6575 19.4366 16.0765 19.8511 16.5721 19.8511C17.0632 19.8511 17.4732 19.4501 17.4777 18.959C17.4867 18.4634 17.0812 18.049 16.5811 18.0444ZM9.97171 18.9455C9.97171 18.4409 9.56622 18.0444 9.05711 18.0444C8.56151 18.049 8.16504 18.4454 8.16054 18.941C8.15603 19.4411 8.56152 19.8511 9.06612 19.8556C9.56622 19.8556 9.97171 19.4501 9.97171 18.9455Z" fill="black" stroke="black" stroke-width="0.5" stroke-miterlimit="10"/>
</g></symbol><symbol id="icon-facebook" viewBox="0 0 9 16"><g fill="none">
<path d="M2.46 16H5.39V8.7H7.84L8.21 5.86H5.39V4.04C5.39 3.22 5.62 2.66 6.8 2.66H8.31V0.11C8.05 0.0799999 7.16 0 6.12 0C3.94 0 2.46 1.33 2.46 3.76V5.86H0V8.7H2.46V16Z" fill="white"/>
</g></symbol><symbol id="icon-footer-logo" viewBox="0 0 122 43"><g fill="none">
<path d="M29.3898 32.3467H2.92336C2.5068 32.3467 2.11999 32.2715 1.76294 32.1211C1.40589 31.9708 1.09347 31.7677 0.825681 31.5121C0.57277 31.2414 0.371929 30.9256 0.223157 30.5647C0.0743857 30.2038 0 29.8128 0 29.3917V0H5.80209V26.4819H29.3898V32.3467Z" fill="#F5F5F5"/>
<path d="M59.2482 24.1134C59.2482 25.121 59.1218 26.0308 58.8689 26.8428C58.6159 27.6398 58.2812 28.3466 57.8646 28.9632C57.4481 29.5647 56.9646 30.0835 56.4141 30.5196C55.8637 30.9407 55.2835 31.2865 54.6735 31.5572C54.0784 31.8279 53.4684 32.0309 52.8436 32.1662C52.2336 32.2866 51.6534 32.3467 51.103 32.3467H40.6369C39.8335 32.3467 38.9558 32.2038 38.0037 31.9181C37.0515 31.6324 36.1663 31.1662 35.3481 30.5196C34.5447 29.8579 33.8678 29.0083 33.3174 27.9706C32.7818 26.918 32.514 25.6322 32.514 24.1134V16.1734C32.514 14.6696 32.7818 13.3988 33.3174 12.3612C33.8678 11.3086 34.5447 10.4589 35.3481 9.81228C36.1663 9.15061 37.0515 8.67692 38.0037 8.3912C38.9558 8.10547 39.8335 7.96261 40.6369 7.96261H51.103C52.5907 7.96261 53.8553 8.2333 54.8967 8.77466C55.9381 9.31603 56.7786 10.0003 57.4183 10.8273C58.058 11.6394 58.5192 12.5266 58.8019 13.4891C59.0994 14.4515 59.2482 15.3463 59.2482 16.1734V24.1134ZM53.4461 16.2185C53.4461 15.4064 53.2453 14.8049 52.8436 14.4139C52.4419 14.0229 51.8617 13.8274 51.103 13.8274H40.6815C39.9079 13.8274 39.3203 14.0304 38.9186 14.4365C38.5169 14.8275 38.3161 15.4064 38.3161 16.1734V24.1134C38.3161 24.8803 38.5169 25.4668 38.9186 25.8729C39.3203 26.2789 39.9079 26.4819 40.6815 26.4819H51.103C51.8915 26.4819 52.4791 26.2789 52.8659 25.8729C53.2527 25.4668 53.4461 24.8803 53.4461 24.1134V16.2185Z" fill="#F5F5F5"/>
<path d="M90.4456 34.6926C90.4456 35.7002 90.3191 36.6025 90.0662 37.3995C89.8133 38.2115 89.4786 38.9183 89.062 39.5198C88.6454 40.1364 88.1619 40.6552 87.6115 41.0763C87.061 41.5124 86.4808 41.8657 85.8709 42.1364C85.2758 42.4071 84.6658 42.6026 84.041 42.7229C83.431 42.8583 82.8508 42.9259 82.3003 42.9259H71.8343V37.0611H82.3003C83.0888 37.0611 83.6765 36.8581 84.0633 36.4521C84.4501 36.046 84.6435 35.4596 84.6435 34.6926V16.1734C84.6435 15.4064 84.4501 14.8275 84.0633 14.4365C83.6765 14.0304 83.0888 13.8274 82.3003 13.8274H71.8343C71.1202 13.8274 70.5548 14.053 70.1383 14.5041C69.7217 14.9402 69.5134 15.4966 69.5134 16.1734V24.1134C69.5134 24.8803 69.7143 25.4668 70.116 25.8729C70.5177 26.2789 71.1053 26.4819 71.8789 26.4819H82.3003V32.3467H71.8343C71.2838 32.3467 70.7036 32.2866 70.0937 32.1662C69.4837 32.0309 68.8737 31.8279 68.2638 31.5572C67.6687 31.2865 67.0959 30.9407 66.5455 30.5196C65.995 30.0835 65.5115 29.5647 65.0949 28.9632C64.6784 28.3466 64.3436 27.6398 64.0907 26.8428C63.8378 26.0308 63.7114 25.121 63.7114 24.1134V16.1734C63.7114 15.6169 63.7709 15.0305 63.8899 14.4139C64.0238 13.7974 64.2246 13.1883 64.4924 12.5868C64.7602 11.9702 65.1024 11.3838 65.5189 10.8273C65.9504 10.2709 66.4636 9.78221 67.0587 9.36115C67.6687 8.94008 68.3679 8.60173 69.1564 8.34608C69.9449 8.09044 70.8375 7.96261 71.8343 7.96261H82.3003C82.8508 7.96261 83.431 8.03028 84.041 8.16563C84.6658 8.28593 85.2758 8.48142 85.8709 8.75211C86.4808 9.02279 87.061 9.37618 87.6115 9.81228C88.1619 10.2333 88.6454 10.7522 89.062 11.3687C89.4786 11.9702 89.8133 12.6695 90.0662 13.4665C90.3191 14.2635 90.4456 15.1658 90.4456 16.1734V34.6926Z" fill="#F5F5F5"/>
<path d="M122 24.1134C122 25.121 121.874 26.0308 121.621 26.8428C121.368 27.6398 121.033 28.3466 120.616 28.9632C120.2 29.5647 119.716 30.0835 119.166 30.5196C118.615 30.9407 118.035 31.2865 117.425 31.5572C116.83 31.8279 116.22 32.0309 115.595 32.1662C114.985 32.2866 114.405 32.3467 113.855 32.3467H103.389C102.585 32.3467 101.708 32.2038 100.755 31.9181C99.8033 31.6324 98.9181 31.1662 98.0999 30.5196C97.2965 29.8579 96.6196 29.0083 96.0691 27.9706C95.5336 26.918 95.2658 25.6322 95.2658 24.1134V16.1734C95.2658 14.6696 95.5336 13.3988 96.0691 12.3612C96.6196 11.3086 97.2965 10.4589 98.0999 9.81228C98.9181 9.15061 99.8033 8.67692 100.755 8.3912C101.708 8.10547 102.585 7.96261 103.389 7.96261H113.855C115.342 7.96261 116.607 8.2333 117.648 8.77466C118.69 9.31603 119.53 10.0003 120.17 10.8273C120.81 11.6394 121.271 12.5266 121.554 13.4891C121.851 14.4515 122 15.3463 122 16.1734V24.1134ZM116.198 16.2185C116.198 15.4064 115.997 14.8049 115.595 14.4139C115.194 14.0229 114.614 13.8274 113.855 13.8274H103.433C102.66 13.8274 102.072 14.0304 101.67 14.4365C101.269 14.8275 101.068 15.4064 101.068 16.1734V24.1134C101.068 24.8803 101.269 25.4668 101.67 25.8729C102.072 26.2789 102.66 26.4819 103.433 26.4819H113.855C114.643 26.4819 115.231 26.2789 115.618 25.8729C116.005 25.4668 116.198 24.8803 116.198 24.1134V16.2185Z" fill="#F5F5F5"/>
</g></symbol><symbol id="icon-instagram" viewBox="0 0 26 25"><g fill="none">
<path d="M25.7573 7.37887C25.7433 6.32917 25.5468 5.28991 25.1765 4.30757C24.8555 3.47898 24.3651 2.72646 23.7368 2.09811C23.1084 1.46976 22.3559 0.979392 21.5273 0.658333C20.5576 0.294319 19.5331 0.0974904 18.4976 0.0762281C17.1643 0.0166316 16.7416 0 13.357 0C9.97252 0 9.53872 9.29361e-08 8.21512 0.0762281C7.18003 0.0976467 6.15606 0.294473 5.18679 0.658333C4.35807 0.979168 3.60544 1.46946 2.97706 2.09784C2.34868 2.72622 1.85839 3.47885 1.53755 4.30757C1.17281 5.27654 0.976407 6.30074 0.956833 7.3359C0.897237 8.67059 0.879219 9.0933 0.879219 12.4778C0.879219 15.8623 0.879219 16.2948 0.956833 17.6197C0.977622 18.6564 1.17304 19.6793 1.53755 20.6509C1.85893 21.4793 2.34958 22.2317 2.97817 22.8598C3.60676 23.4879 4.35946 23.978 5.18818 24.2987C6.1548 24.6773 7.17894 24.8883 8.21651 24.9224C9.55119 24.982 9.97391 25 13.3584 25C16.743 25 17.1768 25 18.5004 24.9224C19.5359 24.902 20.5604 24.7056 21.5301 24.3417C22.3584 24.0202 23.1108 23.5297 23.7391 22.9014C24.3674 22.2731 24.8579 21.5208 25.1793 20.6924C25.5438 19.7223 25.7392 18.6994 25.76 17.6613C25.8196 16.328 25.8376 15.9053 25.8376 12.5194C25.8349 9.13488 25.8349 8.70523 25.7573 7.37887V7.37887ZM13.3487 18.8782C9.80898 18.8782 6.94142 16.0106 6.94142 12.4709C6.94142 8.93115 9.80898 6.06359 13.3487 6.06359C15.0481 6.06359 16.6778 6.73864 17.8794 7.94025C19.081 9.14185 19.756 10.7716 19.756 12.4709C19.756 14.1702 19.081 15.7999 17.8794 17.0015C16.6778 18.2031 15.0481 18.8782 13.3487 18.8782V18.8782ZM20.0111 7.32066C19.8148 7.32084 19.6204 7.28232 19.4391 7.2073C19.2577 7.13228 19.093 7.02223 18.9542 6.88346C18.8154 6.74469 18.7054 6.57991 18.6303 6.39856C18.5553 6.21721 18.5168 6.02284 18.517 5.82659C18.517 5.63048 18.5556 5.43628 18.6307 5.2551C18.7057 5.07391 18.8157 4.90929 18.9544 4.77061C19.0931 4.63194 19.2577 4.52194 19.4389 4.44689C19.6201 4.37184 19.8143 4.33321 20.0104 4.33321C20.2065 4.33321 20.4007 4.37184 20.5819 4.44689C20.763 4.52194 20.9277 4.63194 21.0663 4.77061C21.205 4.90929 21.315 5.07391 21.3901 5.2551C21.4651 5.43628 21.5037 5.63048 21.5037 5.82659C21.5037 6.65262 20.8357 7.32066 20.0111 7.32066Z" fill="white"/>
<path d="M13.3518 16.6332C15.6504 16.6332 17.5139 14.7698 17.5139 12.4711C17.5139 10.1725 15.6504 8.30908 13.3518 8.30908C11.0532 8.30908 9.18977 10.1725 9.18977 12.4711C9.18977 14.7698 11.0532 16.6332 13.3518 16.6332Z" fill="white"/>
</g></symbol><symbol id="icon-like" viewBox="0 0 21 19"><g fill="none">
<path d="M0.610919 6.42787C0.674502 6.04637 0.711903 5.66113 0.809148 5.28711C1.32155 3.32725 2.46979 1.89476 4.42965 1.27763C6.52416 0.615619 8.34937 1.15047 9.8604 2.74379C10.0399 2.9308 10.197 3.13651 10.3728 3.34596C10.5449 3.14399 10.7019 2.94202 10.8777 2.75127C11.7118 1.85362 12.7067 1.22901 13.9372 1.07192C15.8372 0.828809 17.4642 1.40854 18.7134 2.87095C19.9627 4.33337 20.3292 6.06133 20.0412 7.93891C19.8579 9.12829 19.3156 10.1643 18.605 11.1181C17.6737 12.371 16.5366 13.4258 15.366 14.4468C13.9858 15.6474 12.5945 16.8406 11.2069 18.0337C10.672 18.4937 10.0998 18.5124 9.58737 18.0711C7.77712 16.5002 5.96313 14.9368 4.17532 13.3397C3.26645 12.5319 2.45483 11.6267 1.78534 10.6019C1.15699 9.63321 0.734345 8.5897 0.6371 7.43024C0.63336 7.38536 0.618398 7.34422 0.607178 7.30307C0.610918 7.01134 0.610919 6.7196 0.610919 6.42787ZM10.3691 17.237C10.4177 17.1996 10.4588 17.1697 10.4962 17.136C12.0409 15.8008 13.5931 14.4768 15.1228 13.1303C16.1925 12.1878 17.2099 11.1891 17.9991 9.99227C18.7546 8.85151 19.1248 7.60977 18.9528 6.23338C18.7658 4.74853 18.13 3.518 16.8134 2.74379C15.5866 2.02193 14.2888 1.93216 12.9872 2.56052C12.2167 2.93079 11.6482 3.53297 11.1695 4.23238C11.1021 4.33337 11.0386 4.43809 10.9675 4.53534C10.6533 4.96546 10.0923 4.96172 9.77438 4.53908C9.49761 4.1688 9.24327 3.77608 8.92535 3.43946C7.90428 2.35855 6.6401 1.93965 5.18517 2.25382C3.61429 2.59418 2.582 3.58907 2.06211 5.08514C1.4562 6.82433 1.7442 8.46253 2.74657 9.98853C3.36744 10.9348 4.13044 11.7651 4.96824 12.5169C6.35211 13.7624 7.7659 14.9779 9.16473 16.201C9.56493 16.5488 9.96513 16.8892 10.3691 17.237Z" fill="black" stroke="black" stroke-width="0.5" stroke-miterlimit="10"/>
</g></symbol><symbol id="icon-login-large" viewBox="0 0 162 57"><g fill="none">
<path d="M39.0258 42.9522H3.88184C3.3287 42.9522 2.81507 42.8523 2.34095 42.6527C1.86684 42.453 1.45198 42.1834 1.0964 41.8439C0.760563 41.4845 0.493872 41.0652 0.296323 40.5859C0.0987745 40.1067 0 39.5875 0 39.0284V0H7.70441V35.1645H39.0258V42.9522Z" fill="#333333"/>
<path d="M78.6739 32.0194C78.6739 33.3573 78.5059 34.5654 78.1701 35.6437C77.8343 36.702 77.3898 37.6406 76.8367 38.4593C76.2835 39.258 75.6415 39.9469 74.9106 40.526C74.1796 41.0851 73.4092 41.5444 72.5992 41.9038C71.809 42.2633 70.9991 42.5328 70.1694 42.7126C69.3594 42.8723 68.589 42.9522 67.8581 42.9522H53.9605C52.8937 42.9522 51.7282 42.7625 50.4639 42.3831C49.1996 42.0037 48.0241 41.3847 46.9376 40.526C45.8709 39.6474 44.972 38.5192 44.2411 37.1414C43.5299 35.7436 43.1743 34.0363 43.1743 32.0194V21.4761C43.1743 19.4792 43.5299 17.7919 44.2411 16.4141C44.972 15.0163 45.8709 13.8881 46.9376 13.0294C48.0241 12.1508 49.1996 11.5218 50.4639 11.1424C51.7282 10.763 52.8937 10.5733 53.9605 10.5733H67.8581C69.8335 10.5733 71.5127 10.9327 72.8956 11.6516C74.2784 12.3705 75.3945 13.279 76.244 14.3773C77.0935 15.4556 77.7059 16.6337 78.0812 17.9117C78.4763 19.1897 78.6739 20.3778 78.6739 21.4761V32.0194ZM70.9695 21.536C70.9695 20.4577 70.7028 19.659 70.1694 19.1398C69.636 18.6206 68.8656 18.361 67.8581 18.361H54.0198C52.9925 18.361 52.2122 18.6306 51.6788 19.1697C51.1454 19.6889 50.8787 20.4577 50.8787 21.4761V32.0194C50.8787 33.0378 51.1454 33.8166 51.6788 34.3558C52.2122 34.8949 52.9925 35.1645 54.0198 35.1645H67.8581C68.9051 35.1645 69.6854 34.8949 70.199 34.3558C70.7126 33.8166 70.9695 33.0378 70.9695 32.0194V21.536Z" fill="#333333"/>
<path d="M120.1 46.0673C120.1 47.4052 119.932 48.6033 119.596 49.6616C119.26 50.7399 118.816 51.6784 118.263 52.4771C117.71 53.2959 117.067 53.9848 116.337 54.5439C115.606 55.123 114.835 55.5922 114.025 55.9517C113.235 56.3111 112.425 56.5707 111.595 56.7304C110.785 56.9101 110.015 57 109.284 57H95.3865V49.2123H109.284C110.331 49.2123 111.111 48.9427 111.625 48.4036C112.139 47.8644 112.395 47.0857 112.395 46.0673V21.4761C112.395 20.4577 112.139 19.6889 111.625 19.1697C111.111 18.6306 110.331 18.361 109.284 18.361H95.3865C94.4383 18.361 93.6876 18.6605 93.1344 19.2596C92.5813 19.8387 92.3047 20.5775 92.3047 21.4761V32.0194C92.3047 33.0378 92.5714 33.8166 93.1048 34.3558C93.6382 34.8949 94.4185 35.1645 95.4458 35.1645H109.284V42.9522H95.3865C94.6556 42.9522 93.8851 42.8723 93.0752 42.7126C92.2652 42.5328 91.4553 42.2633 90.6453 41.9038C89.8551 41.5444 89.0946 41.0851 88.3636 40.526C87.6327 39.9469 86.9907 39.258 86.4375 38.4593C85.8844 37.6406 85.4399 36.702 85.1041 35.6437C84.7682 34.5654 84.6003 33.3573 84.6003 32.0194V21.4761C84.6003 20.7373 84.6793 19.9585 84.8374 19.1398C85.0152 18.3211 85.2819 17.5124 85.6375 16.7136C85.993 15.8949 86.4474 15.1161 87.0005 14.3773C87.5734 13.6385 88.255 12.9895 89.0452 12.4304C89.8551 11.8713 90.7836 11.422 91.8306 11.0825C92.8776 10.743 94.0629 10.5733 95.3865 10.5733H109.284C110.015 10.5733 110.785 10.6632 111.595 10.8429C112.425 11.0026 113.235 11.2622 114.025 11.6217C114.835 11.9811 115.606 12.4503 116.337 13.0294C117.067 13.5885 117.71 14.2775 118.263 15.0962C118.816 15.8949 119.26 16.8234 119.596 17.8818C119.932 18.9401 120.1 20.1382 120.1 21.4761V46.0673Z" fill="#333333"/>
<path d="M162 32.0194C162 33.3573 161.832 34.5654 161.496 35.6437C161.16 36.702 160.716 37.6406 160.163 38.4593C159.61 39.258 158.968 39.9469 158.237 40.526C157.506 41.0851 156.735 41.5444 155.925 41.9038C155.135 42.2633 154.325 42.5328 153.496 42.7126C152.686 42.8723 151.915 42.9522 151.184 42.9522H137.287C136.22 42.9522 135.054 42.7625 133.79 42.3831C132.526 42.0037 131.35 41.3847 130.264 40.526C129.197 39.6474 128.298 38.5192 127.567 37.1414C126.856 35.7436 126.5 34.0363 126.5 32.0194V21.4761C126.5 19.4792 126.856 17.7919 127.567 16.4141C128.298 15.0163 129.197 13.8881 130.264 13.0294C131.35 12.1508 132.526 11.5218 133.79 11.1424C135.054 10.763 136.22 10.5733 137.287 10.5733H151.184C153.16 10.5733 154.839 10.9327 156.222 11.6516C157.605 12.3705 158.721 13.279 159.57 14.3773C160.42 15.4556 161.032 16.6337 161.407 17.9117C161.802 19.1897 162 20.3778 162 21.4761V32.0194ZM154.296 21.536C154.296 20.4577 154.029 19.659 153.496 19.1398C152.962 18.6206 152.192 18.361 151.184 18.361H137.346C136.319 18.361 135.538 18.6306 135.005 19.1697C134.472 19.6889 134.205 20.4577 134.205 21.4761V32.0194C134.205 33.0378 134.472 33.8166 135.005 34.3558C135.538 34.8949 136.319 35.1645 137.346 35.1645H151.184C152.231 35.1645 153.012 34.8949 153.525 34.3558C154.039 33.8166 154.296 33.0378 154.296 32.0194V21.536Z" fill="#333333"/>
</g></symbol><symbol id="icon-login" viewBox="0 0 17 19"><g fill="none">
<path d="M12.1678 9.37421C13.2035 9.96312 13.9955 10.7714 14.5966 11.7746C15.2383 12.8508 15.6242 14.0206 15.7988 15.2512C15.9125 16.0554 15.9491 16.8717 15.9978 17.684C16.0263 18.143 15.7623 18.3907 15.2993 18.3907C10.7991 18.3907 6.29899 18.3907 1.79886 18.3907C1.32772 18.3907 1.07997 18.147 1.08403 17.6718C1.09622 16.0351 1.30335 14.4348 1.92476 12.9077C2.52586 11.4334 3.44782 10.2271 4.84498 9.41482C4.86528 9.40264 4.88559 9.38233 4.9059 9.36609C2.8386 7.18913 3.30161 3.86276 5.34048 2.16506C7.27781 0.544524 10.1127 0.621692 11.9526 2.35189C13.8331 4.11864 14.1417 7.22162 12.1678 9.37421ZM14.7428 17.1438C14.6657 15.5071 14.4098 13.9271 13.5853 12.4934C13.0329 11.5309 12.2694 10.7917 11.2581 10.3084C11.1362 10.2474 11.0469 10.2515 10.925 10.3165C9.32886 11.1613 7.72863 11.1491 6.13653 10.3043C6.03499 10.2515 5.95376 10.2393 5.85223 10.2921C5.06023 10.6698 4.39821 11.2059 3.87834 11.9126C3.1229 12.9361 2.72488 14.1018 2.52586 15.3446C2.43245 15.9335 2.38371 16.5346 2.3106 17.1438C6.47363 17.1438 10.596 17.1438 14.7428 17.1438ZM12.2694 5.97068C12.2694 3.91556 10.6001 2.23817 8.54499 2.23817C6.48988 2.23817 4.81248 3.90744 4.81248 5.96255C4.81248 8.01767 6.48176 9.69507 8.53687 9.69507C10.592 9.69913 12.2694 8.02579 12.2694 5.97068Z" fill="black" stroke="black" stroke-width="0.5" stroke-miterlimit="10"/>
</g></symbol><symbol id="icon-main-logo" viewBox="0 0 101 36"><g fill="none">
<path d="M24.3309 26.7788H2.42016C2.0753 26.7788 1.75508 26.7166 1.45948 26.5921C1.16389 26.4676 0.90525 26.2995 0.683556 26.0879C0.474178 25.8638 0.307908 25.6024 0.184745 25.3036C0.0615816 25.0048 0 24.6811 0 24.3325V0H4.80337V21.9235H24.3309V26.7788Z" fill="black"/>
<path d="M49.0498 19.9627C49.0498 20.7969 48.9451 21.55 48.7357 22.2223C48.5263 22.8821 48.2492 23.4673 47.9043 23.9777C47.5595 24.4757 47.1592 24.9052 46.7035 25.2662C46.2478 25.6148 45.7675 25.9011 45.2625 26.1252C44.7698 26.3493 44.2649 26.5174 43.7476 26.6294C43.2426 26.729 42.7623 26.7788 42.3066 26.7788H33.642C32.977 26.7788 32.2503 26.6606 31.462 26.424C30.6738 26.1875 29.941 25.8015 29.2636 25.2662C28.5985 24.7184 28.0381 24.015 27.5824 23.156C27.139 22.2846 26.9173 21.2201 26.9173 19.9627V13.3894C26.9173 12.1445 27.139 11.0925 27.5824 10.2335C28.0381 9.36201 28.5985 8.65861 29.2636 8.12329C29.941 7.57551 30.6738 7.18335 31.462 6.94681C32.2503 6.71027 32.977 6.592 33.642 6.592H42.3066C43.5382 6.592 44.5851 6.81609 45.4472 7.26427C46.3094 7.71245 47.0052 8.2789 47.5348 8.96362C48.0644 9.6359 48.4463 10.3704 48.6803 11.1672C48.9266 11.9639 49.0498 12.7047 49.0498 13.3894V19.9627ZM44.2464 13.4268C44.2464 12.7545 44.0801 12.2565 43.7476 11.9328C43.415 11.6091 42.9347 11.4473 42.3066 11.4473H33.679C33.0385 11.4473 32.552 11.6154 32.2195 11.9515C31.887 12.2752 31.7207 12.7545 31.7207 13.3894V19.9627C31.7207 20.5977 31.887 21.0832 32.2195 21.4193C32.552 21.7555 33.0385 21.9235 33.679 21.9235H42.3066C42.9593 21.9235 43.4458 21.7555 43.766 21.4193C44.0863 21.0832 44.2464 20.5977 44.2464 19.9627V13.4268Z" fill="black"/>
<path d="M74.8771 28.7209C74.8771 29.5551 74.7724 30.302 74.563 30.9619C74.3536 31.6341 74.0765 32.2192 73.7317 32.7172C73.3868 33.2277 72.9865 33.6572 72.5308 34.0058C72.0751 34.3668 71.5948 34.6593 71.0898 34.8834C70.5972 35.1075 70.0922 35.2694 69.5749 35.369C69.0699 35.481 68.5896 35.537 68.1339 35.537H59.4694V30.6817H68.1339C68.7867 30.6817 69.2732 30.5137 69.5934 30.1775C69.9136 29.8414 70.0737 29.3559 70.0737 28.7209V13.3894C70.0737 12.7545 69.9136 12.2752 69.5934 11.9515C69.2732 11.6154 68.7867 11.4473 68.1339 11.4473H59.4694C58.8782 11.4473 58.4102 11.634 58.0653 12.0075C57.7204 12.3686 57.548 12.8292 57.548 13.3894V19.9627C57.548 20.5977 57.7143 21.0832 58.0468 21.4193C58.3794 21.7555 58.8659 21.9235 59.5063 21.9235H68.1339V26.7788H59.4694C59.0137 26.7788 58.5333 26.729 58.0284 26.6294C57.5234 26.5174 57.0184 26.3493 56.5134 26.1252C56.0208 25.9011 55.5466 25.6148 55.0909 25.2662C54.6352 24.9052 54.2349 24.4757 53.8901 23.9777C53.5452 23.4673 53.2681 22.8821 53.0587 22.2223C52.8493 21.55 52.7446 20.7969 52.7446 19.9627V13.3894C52.7446 12.9288 52.7939 12.4433 52.8924 11.9328C53.0033 11.4224 53.1696 10.9182 53.3913 10.4202C53.6129 9.90979 53.8962 9.42426 54.2411 8.96362C54.5983 8.50299 55.0232 8.09839 55.5158 7.7498C56.0208 7.40122 56.5997 7.1211 57.2524 6.90946C57.9052 6.69782 58.6442 6.592 59.4694 6.592H68.1339C68.5896 6.592 69.0699 6.64802 69.5749 6.76007C70.0922 6.85966 70.5972 7.02151 71.0898 7.2456C71.5948 7.46969 72.0751 7.76225 72.5308 8.12329C72.9865 8.47187 73.3868 8.90138 73.7317 9.41181C74.0765 9.90979 74.3536 10.4887 74.563 11.1485C74.7724 11.8083 74.8771 12.5553 74.8771 13.3894V28.7209Z" fill="black"/>
<path d="M101 19.9627C101 20.7969 100.895 21.55 100.686 22.2223C100.477 22.8821 100.199 23.4673 99.8546 23.9777C99.5097 24.4757 99.1094 24.9052 98.6537 25.2662C98.198 25.6148 97.7177 25.9011 97.2127 26.1252C96.7201 26.3493 96.2151 26.5174 95.6978 26.6294C95.1929 26.729 94.7125 26.7788 94.2568 26.7788H85.5923C84.9272 26.7788 84.2005 26.6606 83.4123 26.424C82.624 26.1875 81.8912 25.8015 81.2138 25.2662C80.5487 24.7184 79.9883 24.015 79.5326 23.156C79.0893 22.2846 78.8676 21.2201 78.8676 19.9627V13.3894C78.8676 12.1445 79.0893 11.0925 79.5326 10.2335C79.9883 9.36201 80.5487 8.65861 81.2138 8.12329C81.8912 7.57551 82.624 7.18335 83.4123 6.94681C84.2005 6.71027 84.9272 6.592 85.5923 6.592H94.2568C95.4884 6.592 96.5353 6.81609 97.3975 7.26427C98.2596 7.71245 98.9555 8.2789 99.4851 8.96362C100.015 9.6359 100.396 10.3704 100.631 11.1672C100.877 11.9639 101 12.7047 101 13.3894V19.9627ZM96.1966 13.4268C96.1966 12.7545 96.0304 12.2565 95.6978 11.9328C95.3653 11.6091 94.8849 11.4473 94.2568 11.4473H85.6292C84.9888 11.4473 84.5023 11.6154 84.1697 11.9515C83.8372 12.2752 83.6709 12.7545 83.6709 13.3894V19.9627C83.6709 20.5977 83.8372 21.0832 84.1697 21.4193C84.5023 21.7555 84.9888 21.9235 85.6292 21.9235H94.2568C94.9096 21.9235 95.3961 21.7555 95.7163 21.4193C96.0365 21.0832 96.1966 20.5977 96.1966 19.9627V13.4268Z" fill="black"/>
</g></symbol><symbol id="icon-play" viewBox="0 0 60 60"><g fill="none">
<circle cx="30" cy="30" r="30" fill="#111010"/>
</g></symbol><symbol id="icon-search" viewBox="0 0 19 19"><g fill="none">
<path d="M12.9473 13.958C11.0766 15.409 8.98176 15.9184 6.67495 15.409C4.90612 15.0218 3.47965 14.0681 2.41184 12.6049C0.202844 9.58082 0.626715 5.43998 3.39814 2.88048C6.031 0.447328 10.2371 0.373967 12.9881 2.66855C15.9429 5.1343 16.5869 9.69901 13.9785 12.931C14.0274 12.984 14.0804 13.041 14.1334 13.094C15.3357 14.2963 16.542 15.4986 17.7403 16.7091C17.8626 16.8314 17.9604 17.0025 18.0011 17.1696C18.0745 17.4835 17.9074 17.7728 17.6343 17.9155C17.3531 18.0622 17.0311 18.0174 16.7907 17.7851C16.4361 17.4386 16.0897 17.0881 15.7432 16.7376C14.8547 15.8532 13.9703 14.9647 13.0818 14.0803C13.0411 14.0396 12.9963 14.0029 12.9473 13.958ZM8.31743 2.41993C5.09768 2.41178 2.45667 5.04056 2.44037 8.27662C2.42407 11.5086 5.061 14.1618 8.29705 14.17C11.5209 14.1781 14.17 11.5493 14.1863 8.32552C14.2026 5.07725 11.5698 2.42808 8.31743 2.41993Z" fill="black" stroke="black" stroke-width="0.5" stroke-miterlimit="10"/>
</g></symbol><symbol id="icon-twitter" viewBox="0 0 19 15"><g fill="none">
<path d="M18.1925 1.72C17.7025 2.45 17.0825 3.1 16.3625 3.62C16.3725 3.77 16.3725 3.93 16.3725 4.09C16.3725 8.94 12.6825 14.53 5.9425 14.53C3.8725 14.53 1.9425 13.92 0.3125 12.88C0.6025 12.91 0.8925 12.93 1.1925 12.93C2.9125 12.93 4.4925 12.34 5.7425 11.36C4.97784 11.3442 4.23722 11.0899 3.62408 10.6328C3.01093 10.1756 2.55589 9.53834 2.3225 8.81C2.5425 8.85 2.7725 8.88 3.0125 8.88C3.3425 8.88 3.6725 8.83 3.9725 8.75C3.1431 8.57974 2.39778 8.12869 1.86222 7.4729C1.32666 6.8171 1.03361 5.99669 1.0325 5.15V5.11C1.5325 5.38 2.0925 5.55 2.6925 5.57C2.1903 5.23314 1.77886 4.7777 1.49456 4.24399C1.21026 3.71027 1.06186 3.11471 1.0625 2.51C1.0625 1.84 1.2425 1.21 1.5625 0.67C3.3725 2.89 6.0725 4.35 9.1225 4.5C9.0625 4.23 9.0225 3.95 9.0225 3.66C9.02515 2.68839 9.41297 1.75748 10.1009 1.07138C10.7889 0.385283 11.7209 -3.60686e-06 12.6925 0C13.7525 0 14.7025 0.44 15.3725 1.16C16.2025 0.99 16.9925 0.69 17.7025 0.27C17.4225 1.12 16.8425 1.84 16.0825 2.29C16.8111 2.21036 17.5229 2.01807 18.1925 1.72Z" fill="white"/>
</g></symbol></svg>