<svg xmlns="http://www.w3.org/2000/svg" xmlns:xlink="http://www.w3.org/1999/xlink">
    <symbol id="icon-cart" viewBox="0 0 23 22">
        <g fill="none">
            <path
                d="M22.2534 5.34824C21.9921 6.14119 21.7308 6.93414 21.474 7.72709C20.7892 9.84913 20.1134 11.9757 19.433 14.0977C19.2708 14.6023 19.0861 14.742 18.559 14.742C15.2655 14.742 11.9721 14.742 8.67866 14.7375C8.49393 14.7375 8.41284 14.7916 8.35878 14.9673C8.19658 15.4493 8.01637 15.9269 7.83165 16.4495C7.93978 16.4495 8.02538 16.4495 8.11098 16.4495C11.5756 16.4495 15.0448 16.4495 18.5094 16.4495C18.5995 16.4495 18.6896 16.4495 18.7798 16.4585C19.0906 16.4991 19.3069 16.7424 19.2979 17.0307C19.2889 17.3236 19.0636 17.5624 18.7572 17.5849C18.5545 17.5984 18.3472 17.5894 18.0994 17.5894C18.5365 18.1436 18.7077 18.7293 18.568 19.3826C18.4599 19.8962 18.185 20.3152 17.7525 20.617C16.9731 21.1622 15.9684 21.1442 15.1754 20.4413C14.405 19.761 14.3419 18.7608 15.0132 17.6074C13.5535 17.6074 12.0983 17.6074 10.616 17.6074C11.0755 18.2247 11.2467 18.8825 10.9944 19.6168C10.8458 20.0494 10.5754 20.3963 10.2015 20.6486C9.39952 21.1892 8.35427 21.0946 7.64692 20.4098C7.0432 19.8286 6.67826 18.7158 7.52978 17.5894C7.37209 17.5894 7.24144 17.5894 7.10628 17.5894C6.59717 17.5804 6.34936 17.2335 6.51606 16.7514C6.72782 16.1522 6.94408 15.553 7.16034 14.9583C7.18287 14.8952 7.20088 14.8321 7.22792 14.742C7.11979 14.742 7.02968 14.742 6.94408 14.742C6.56112 14.733 6.29981 14.5167 6.23223 14.1473C5.99344 12.8632 5.75916 11.5792 5.52488 10.2952C5.11489 8.06049 4.70039 5.82581 4.29491 3.58663C4.27238 3.46048 4.21831 3.40191 4.10117 3.35686C3.22712 3.01895 2.35308 2.67204 1.47903 2.32512C1.1141 2.18095 0.938385 1.85656 1.01948 1.52316C1.12311 1.10416 1.5331 0.892405 1.96111 1.0546C2.51077 1.26185 3.05592 1.48261 3.60107 1.69887C4.07864 1.88359 4.55172 2.07732 5.02929 2.25754C5.33115 2.37017 5.49785 2.58193 5.55642 2.8928C5.96191 5.10045 6.36739 7.31259 6.77287 9.52024C6.99814 10.7502 7.22342 11.9802 7.44418 13.2102C7.46671 13.3408 7.52077 13.3859 7.66044 13.3859C11.1251 13.3814 14.5942 13.3814 18.0589 13.3859C18.1715 13.3859 18.2436 13.3678 18.2842 13.2372C19.0636 10.7953 19.8475 8.35785 20.627 5.91592C20.6315 5.90241 20.627 5.88889 20.627 5.84834C20.4738 5.83933 20.3206 5.82581 20.1674 5.8168C17.748 5.71318 15.3286 5.61406 12.9092 5.51044C11.4089 5.44736 9.90863 5.37978 8.40834 5.3122C7.98032 5.29418 7.69648 5.00133 7.71 4.60035C7.72351 4.21288 8.02988 3.93805 8.44888 3.95157C9.12469 3.9741 9.80501 4.01014 10.4808 4.03717C11.927 4.10025 13.3688 4.16783 14.815 4.2264C17.0677 4.32552 19.3204 4.42013 21.5731 4.51925C21.9335 4.53276 22.1318 4.74452 22.2534 5.0599C22.2534 5.15451 22.2534 5.24912 22.2534 5.34824ZM16.5811 18.0444C16.081 18.0399 15.6665 18.4454 15.662 18.941C15.6575 19.4366 16.0765 19.8511 16.5721 19.8511C17.0632 19.8511 17.4732 19.4501 17.4777 18.959C17.4867 18.4634 17.0812 18.049 16.5811 18.0444ZM9.97171 18.9455C9.97171 18.4409 9.56622 18.0444 9.05711 18.0444C8.56151 18.049 8.16504 18.4454 8.16054 18.941C8.15603 19.4411 8.56152 19.8511 9.06612 19.8556C9.56622 19.8556 9.97171 19.4501 9.97171 18.9455Z"
                fill="black" stroke="black" stroke-width="0.5" stroke-miterlimit="10" />
        </g>
    </symbol>
    <symbol id="icon-facebook" viewBox="0 0 9 16">
        <g fill="none">
            <path
                d="M2.46 16H5.39V8.7H7.84L8.21 5.86H5.39V4.04C5.39 3.22 5.62 2.66 6.8 2.66H8.31V0.11C8.05 0.0799999 7.16 0 6.12 0C3.94 0 2.46 1.33 2.46 3.76V5.86H0V8.7H2.46V16Z"
                fill="white" />
        </g>
    </symbol>
    <symbol id="icon-instagram" viewBox="0 0 19 19">
        <g fill="none">
            <path
                d="M18.1414 5.324C18.1313 4.56662 17.9895 3.81678 17.7224 3.108C17.4908 2.51015 17.1369 1.9672 16.6836 1.51383C16.2302 1.06046 15.6873 0.706651 15.0894 0.475C14.3897 0.212357 13.6506 0.0703413 12.9034 0.0550001C11.9414 0.0120001 11.6364 0 9.19441 0C6.75241 0 6.43941 6.70552e-08 5.48441 0.0550001C4.73757 0.0704541 3.99875 0.212468 3.29941 0.475C2.70146 0.706489 2.15843 1.06024 1.70504 1.51363C1.25165 1.96702 0.897895 2.51006 0.666406 3.108C0.403237 3.80713 0.261529 4.54611 0.247406 5.293C0.204406 6.256 0.191406 6.561 0.191406 9.003C0.191406 11.445 0.191406 11.757 0.247406 12.713C0.262406 13.461 0.403406 14.199 0.666406 14.9C0.898284 15.4978 1.2523 16.0406 1.70584 16.4938C2.15938 16.947 2.70247 17.3006 3.30041 17.532C3.99784 17.8052 4.73678 17.9574 5.48541 17.982C6.44841 18.025 6.75341 18.038 9.19541 18.038C11.6374 18.038 11.9504 18.038 12.9054 17.982C13.6526 17.9673 14.3918 17.8256 15.0914 17.563C15.6891 17.3311 16.2319 16.9772 16.6852 16.5238C17.1386 16.0705 17.4925 15.5277 17.7244 14.93C17.9874 14.23 18.1284 13.492 18.1434 12.743C18.1864 11.781 18.1994 11.476 18.1994 9.033C18.1974 6.591 18.1974 6.281 18.1414 5.324ZM9.18841 13.621C6.63441 13.621 4.56541 11.552 4.56541 8.998C4.56541 6.444 6.63441 4.375 9.18841 4.375C10.4145 4.375 11.5904 4.86207 12.4574 5.72905C13.3243 6.59603 13.8114 7.7719 13.8114 8.998C13.8114 10.2241 13.3243 11.4 12.4574 12.267C11.5904 13.1339 10.4145 13.621 9.18841 13.621ZM13.9954 5.282C13.8538 5.28213 13.7136 5.25434 13.5827 5.20021C13.4519 5.14608 13.333 5.06668 13.2329 4.96655C13.1327 4.86643 13.0533 4.74754 12.9992 4.61669C12.9451 4.48584 12.9173 4.3456 12.9174 4.204C12.9174 4.0625 12.9453 3.92239 12.9994 3.79166C13.0536 3.66093 13.1329 3.54215 13.233 3.44209C13.3331 3.34204 13.4518 3.26267 13.5826 3.20852C13.7133 3.15437 13.8534 3.1265 13.9949 3.1265C14.1364 3.1265 14.2765 3.15437 14.4072 3.20852C14.538 3.26267 14.6568 3.34204 14.7568 3.44209C14.8569 3.54215 14.9362 3.66093 14.9904 3.79166C15.0445 3.92239 15.0724 4.0625 15.0724 4.204C15.0724 4.8 14.5904 5.282 13.9954 5.282Z"
                fill="white" />
        </g>
    </symbol>
    <symbol id="icon-like" viewBox="0 0 21 19">
        <g fill="none">
            <path
                d="M0.610919 6.42787C0.674502 6.04637 0.711903 5.66113 0.809148 5.28711C1.32155 3.32725 2.46979 1.89476 4.42965 1.27763C6.52416 0.615619 8.34937 1.15047 9.8604 2.74379C10.0399 2.9308 10.197 3.13651 10.3728 3.34596C10.5449 3.14399 10.7019 2.94202 10.8777 2.75127C11.7118 1.85362 12.7067 1.22901 13.9372 1.07192C15.8372 0.828809 17.4642 1.40854 18.7134 2.87095C19.9627 4.33337 20.3292 6.06133 20.0412 7.93891C19.8579 9.12829 19.3156 10.1643 18.605 11.1181C17.6737 12.371 16.5366 13.4258 15.366 14.4468C13.9858 15.6474 12.5945 16.8406 11.2069 18.0337C10.672 18.4937 10.0998 18.5124 9.58737 18.0711C7.77712 16.5002 5.96313 14.9368 4.17532 13.3397C3.26645 12.5319 2.45483 11.6267 1.78534 10.6019C1.15699 9.63321 0.734345 8.5897 0.6371 7.43024C0.63336 7.38536 0.618398 7.34422 0.607178 7.30307C0.610918 7.01134 0.610919 6.7196 0.610919 6.42787ZM10.3691 17.237C10.4177 17.1996 10.4588 17.1697 10.4962 17.136C12.0409 15.8008 13.5931 14.4768 15.1228 13.1303C16.1925 12.1878 17.2099 11.1891 17.9991 9.99227C18.7546 8.85151 19.1248 7.60977 18.9528 6.23338C18.7658 4.74853 18.13 3.518 16.8134 2.74379C15.5866 2.02193 14.2888 1.93216 12.9872 2.56052C12.2167 2.93079 11.6482 3.53297 11.1695 4.23238C11.1021 4.33337 11.0386 4.43809 10.9675 4.53534C10.6533 4.96546 10.0923 4.96172 9.77438 4.53908C9.49761 4.1688 9.24327 3.77608 8.92535 3.43946C7.90428 2.35855 6.6401 1.93965 5.18517 2.25382C3.61429 2.59418 2.582 3.58907 2.06211 5.08514C1.4562 6.82433 1.7442 8.46253 2.74657 9.98853C3.36744 10.9348 4.13044 11.7651 4.96824 12.5169C6.35211 13.7624 7.7659 14.9779 9.16473 16.201C9.56493 16.5488 9.96513 16.8892 10.3691 17.237Z"
                fill="black" stroke="black" stroke-width="0.5" stroke-miterlimit="10" />
        </g>
    </symbol>
    <symbol id="icon-login" viewBox="0 0 17 19">
        <g fill="none">
            <path
                d="M12.1678 9.37421C13.2035 9.96312 13.9955 10.7714 14.5966 11.7746C15.2383 12.8508 15.6242 14.0206 15.7988 15.2512C15.9125 16.0554 15.9491 16.8717 15.9978 17.684C16.0263 18.143 15.7623 18.3907 15.2993 18.3907C10.7991 18.3907 6.29899 18.3907 1.79886 18.3907C1.32772 18.3907 1.07997 18.147 1.08403 17.6718C1.09622 16.0351 1.30335 14.4348 1.92476 12.9077C2.52586 11.4334 3.44782 10.2271 4.84498 9.41482C4.86528 9.40264 4.88559 9.38233 4.9059 9.36609C2.8386 7.18913 3.30161 3.86276 5.34048 2.16506C7.27781 0.544524 10.1127 0.621692 11.9526 2.35189C13.8331 4.11864 14.1417 7.22162 12.1678 9.37421ZM14.7428 17.1438C14.6657 15.5071 14.4098 13.9271 13.5853 12.4934C13.0329 11.5309 12.2694 10.7917 11.2581 10.3084C11.1362 10.2474 11.0469 10.2515 10.925 10.3165C9.32886 11.1613 7.72863 11.1491 6.13653 10.3043C6.03499 10.2515 5.95376 10.2393 5.85223 10.2921C5.06023 10.6698 4.39821 11.2059 3.87834 11.9126C3.1229 12.9361 2.72488 14.1018 2.52586 15.3446C2.43245 15.9335 2.38371 16.5346 2.3106 17.1438C6.47363 17.1438 10.596 17.1438 14.7428 17.1438ZM12.2694 5.97068C12.2694 3.91556 10.6001 2.23817 8.54499 2.23817C6.48988 2.23817 4.81248 3.90744 4.81248 5.96255C4.81248 8.01767 6.48176 9.69507 8.53687 9.69507C10.592 9.69913 12.2694 8.02579 12.2694 5.97068Z"
                fill="black" stroke="black" stroke-width="0.5" stroke-miterlimit="10" />
        </g>
    </symbol>
    <symbol id="icon-main-logo" viewBox="0 0 101 36">
        <g fill="none">
            <path
                d="M24.3309 26.7788H2.42016C2.0753 26.7788 1.75508 26.7166 1.45948 26.5921C1.16389 26.4676 0.90525 26.2995 0.683556 26.0879C0.474178 25.8638 0.307908 25.6024 0.184745 25.3036C0.0615816 25.0048 0 24.6811 0 24.3325V0H4.80337V21.9235H24.3309V26.7788Z"
                fill="black" />
            <path
                d="M49.0498 19.9627C49.0498 20.7969 48.9451 21.55 48.7357 22.2223C48.5263 22.8821 48.2492 23.4673 47.9043 23.9777C47.5595 24.4757 47.1592 24.9052 46.7035 25.2662C46.2478 25.6148 45.7675 25.9011 45.2625 26.1252C44.7698 26.3493 44.2649 26.5174 43.7476 26.6294C43.2426 26.729 42.7623 26.7788 42.3066 26.7788H33.642C32.977 26.7788 32.2503 26.6606 31.462 26.424C30.6738 26.1875 29.941 25.8015 29.2636 25.2662C28.5985 24.7184 28.0381 24.015 27.5824 23.156C27.139 22.2846 26.9173 21.2201 26.9173 19.9627V13.3894C26.9173 12.1445 27.139 11.0925 27.5824 10.2335C28.0381 9.36201 28.5985 8.65861 29.2636 8.12329C29.941 7.57551 30.6738 7.18335 31.462 6.94681C32.2503 6.71027 32.977 6.592 33.642 6.592H42.3066C43.5382 6.592 44.5851 6.81609 45.4472 7.26427C46.3094 7.71245 47.0052 8.2789 47.5348 8.96362C48.0644 9.6359 48.4463 10.3704 48.6803 11.1672C48.9266 11.9639 49.0498 12.7047 49.0498 13.3894V19.9627ZM44.2464 13.4268C44.2464 12.7545 44.0801 12.2565 43.7476 11.9328C43.415 11.6091 42.9347 11.4473 42.3066 11.4473H33.679C33.0385 11.4473 32.552 11.6154 32.2195 11.9515C31.887 12.2752 31.7207 12.7545 31.7207 13.3894V19.9627C31.7207 20.5977 31.887 21.0832 32.2195 21.4193C32.552 21.7555 33.0385 21.9235 33.679 21.9235H42.3066C42.9593 21.9235 43.4458 21.7555 43.766 21.4193C44.0863 21.0832 44.2464 20.5977 44.2464 19.9627V13.4268Z"
                fill="black" />
            <path
                d="M74.8771 28.7209C74.8771 29.5551 74.7724 30.302 74.563 30.9619C74.3536 31.6341 74.0765 32.2192 73.7317 32.7172C73.3868 33.2277 72.9865 33.6572 72.5308 34.0058C72.0751 34.3668 71.5948 34.6593 71.0898 34.8834C70.5972 35.1075 70.0922 35.2694 69.5749 35.369C69.0699 35.481 68.5896 35.537 68.1339 35.537H59.4694V30.6817H68.1339C68.7867 30.6817 69.2732 30.5137 69.5934 30.1775C69.9136 29.8414 70.0737 29.3559 70.0737 28.7209V13.3894C70.0737 12.7545 69.9136 12.2752 69.5934 11.9515C69.2732 11.6154 68.7867 11.4473 68.1339 11.4473H59.4694C58.8782 11.4473 58.4102 11.634 58.0653 12.0075C57.7204 12.3686 57.548 12.8292 57.548 13.3894V19.9627C57.548 20.5977 57.7143 21.0832 58.0468 21.4193C58.3794 21.7555 58.8659 21.9235 59.5063 21.9235H68.1339V26.7788H59.4694C59.0137 26.7788 58.5333 26.729 58.0284 26.6294C57.5234 26.5174 57.0184 26.3493 56.5134 26.1252C56.0208 25.9011 55.5466 25.6148 55.0909 25.2662C54.6352 24.9052 54.2349 24.4757 53.8901 23.9777C53.5452 23.4673 53.2681 22.8821 53.0587 22.2223C52.8493 21.55 52.7446 20.7969 52.7446 19.9627V13.3894C52.7446 12.9288 52.7939 12.4433 52.8924 11.9328C53.0033 11.4224 53.1696 10.9182 53.3913 10.4202C53.6129 9.90979 53.8962 9.42426 54.2411 8.96362C54.5983 8.50299 55.0232 8.09839 55.5158 7.7498C56.0208 7.40122 56.5997 7.1211 57.2524 6.90946C57.9052 6.69782 58.6442 6.592 59.4694 6.592H68.1339C68.5896 6.592 69.0699 6.64802 69.5749 6.76007C70.0922 6.85966 70.5972 7.02151 71.0898 7.2456C71.5948 7.46969 72.0751 7.76225 72.5308 8.12329C72.9865 8.47187 73.3868 8.90138 73.7317 9.41181C74.0765 9.90979 74.3536 10.4887 74.563 11.1485C74.7724 11.8083 74.8771 12.5553 74.8771 13.3894V28.7209Z"
                fill="black" />
            <path
                d="M101 19.9627C101 20.7969 100.895 21.55 100.686 22.2223C100.477 22.8821 100.199 23.4673 99.8546 23.9777C99.5097 24.4757 99.1094 24.9052 98.6537 25.2662C98.198 25.6148 97.7177 25.9011 97.2127 26.1252C96.7201 26.3493 96.2151 26.5174 95.6978 26.6294C95.1929 26.729 94.7125 26.7788 94.2568 26.7788H85.5923C84.9272 26.7788 84.2005 26.6606 83.4123 26.424C82.624 26.1875 81.8912 25.8015 81.2138 25.2662C80.5487 24.7184 79.9883 24.015 79.5326 23.156C79.0893 22.2846 78.8676 21.2201 78.8676 19.9627V13.3894C78.8676 12.1445 79.0893 11.0925 79.5326 10.2335C79.9883 9.36201 80.5487 8.65861 81.2138 8.12329C81.8912 7.57551 82.624 7.18335 83.4123 6.94681C84.2005 6.71027 84.9272 6.592 85.5923 6.592H94.2568C95.4884 6.592 96.5353 6.81609 97.3975 7.26427C98.2596 7.71245 98.9555 8.2789 99.4851 8.96362C100.015 9.6359 100.396 10.3704 100.631 11.1672C100.877 11.9639 101 12.7047 101 13.3894V19.9627ZM96.1966 13.4268C96.1966 12.7545 96.0304 12.2565 95.6978 11.9328C95.3653 11.6091 94.8849 11.4473 94.2568 11.4473H85.6292C84.9888 11.4473 84.5023 11.6154 84.1697 11.9515C83.8372 12.2752 83.6709 12.7545 83.6709 13.3894V19.9627C83.6709 20.5977 83.8372 21.0832 84.1697 21.4193C84.5023 21.7555 84.9888 21.9235 85.6292 21.9235H94.2568C94.9096 21.9235 95.3961 21.7555 95.7163 21.4193C96.0365 21.0832 96.1966 20.5977 96.1966 19.9627V13.4268Z"
                fill="black" />
        </g>
    </symbol>
    <symbol id="icon-play" viewBox="0 0 60 60">
        <g fill="none">
            <circle cx="30" cy="30" r="30" fill="#111010" />
        </g>
    </symbol>
    <symbol id="icon-search" viewBox="0 0 19 19">
        <g fill="none">
            <path
                d="M12.9473 13.958C11.0766 15.409 8.98176 15.9184 6.67495 15.409C4.90612 15.0218 3.47965 14.0681 2.41184 12.6049C0.202844 9.58082 0.626715 5.43998 3.39814 2.88048C6.031 0.447328 10.2371 0.373967 12.9881 2.66855C15.9429 5.1343 16.5869 9.69901 13.9785 12.931C14.0274 12.984 14.0804 13.041 14.1334 13.094C15.3357 14.2963 16.542 15.4986 17.7403 16.7091C17.8626 16.8314 17.9604 17.0025 18.0011 17.1696C18.0745 17.4835 17.9074 17.7728 17.6343 17.9155C17.3531 18.0622 17.0311 18.0174 16.7907 17.7851C16.4361 17.4386 16.0897 17.0881 15.7432 16.7376C14.8547 15.8532 13.9703 14.9647 13.0818 14.0803C13.0411 14.0396 12.9963 14.0029 12.9473 13.958ZM8.31743 2.41993C5.09768 2.41178 2.45667 5.04056 2.44037 8.27662C2.42407 11.5086 5.061 14.1618 8.29705 14.17C11.5209 14.1781 14.17 11.5493 14.1863 8.32552C14.2026 5.07725 11.5698 2.42808 8.31743 2.41993Z"
                fill="black" stroke="black" stroke-width="0.5" stroke-miterlimit="10" />
        </g>
    </symbol>
    <symbol id="icon-twitter" viewBox="0 0 19 15">
        <g fill="none">
            <path
                d="M18.1925 1.72C17.7025 2.45 17.0825 3.1 16.3625 3.62C16.3725 3.77 16.3725 3.93 16.3725 4.09C16.3725 8.94 12.6825 14.53 5.9425 14.53C3.8725 14.53 1.9425 13.92 0.3125 12.88C0.6025 12.91 0.8925 12.93 1.1925 12.93C2.9125 12.93 4.4925 12.34 5.7425 11.36C4.97784 11.3442 4.23722 11.0899 3.62408 10.6328C3.01093 10.1756 2.55589 9.53834 2.3225 8.81C2.5425 8.85 2.7725 8.88 3.0125 8.88C3.3425 8.88 3.6725 8.83 3.9725 8.75C3.1431 8.57974 2.39778 8.12869 1.86222 7.4729C1.32666 6.8171 1.03361 5.99669 1.0325 5.15V5.11C1.5325 5.38 2.0925 5.55 2.6925 5.57C2.1903 5.23314 1.77886 4.7777 1.49456 4.24399C1.21026 3.71027 1.06186 3.11471 1.0625 2.51C1.0625 1.84 1.2425 1.21 1.5625 0.67C3.3725 2.89 6.0725 4.35 9.1225 4.5C9.0625 4.23 9.0225 3.95 9.0225 3.66C9.02515 2.68839 9.41297 1.75748 10.1009 1.07138C10.7889 0.385283 11.7209 -3.60686e-06 12.6925 0C13.7525 0 14.7025 0.44 15.3725 1.16C16.2025 0.99 16.9925 0.69 17.7025 0.27C17.4225 1.12 16.8425 1.84 16.0825 2.29C16.8111 2.21036 17.5229 2.01807 18.1925 1.72Z"
                fill="white" />
        </g>
    </symbol>
</svg>